<svg width="247" height="44" viewBox="0 0 247 44" fill="none" xmlns="http://www.w3.org/2000/svg">
<path d="M19.8713 1.84962L13.6625 10.5861C13.2616 11.1501 13.5256 11.8554 14.2562 12.1725L23.9781 16.3922C24.719 16.7137 25.6607 16.516 26.082 15.9504L37.9654 0.000640869H23.9401C22.2425 0.000640869 20.6809 0.710169 19.8713 1.84962Z" fill="#29A361"/>
<path d="M37.9647 0L26.0818 15.95C25.6598 16.5154 24.7186 16.7136 23.9781 16.3923L21.4406 15.2913C22.0593 15.3674 22.7028 15.1503 23.0304 14.7099L33.9921 0H37.9647Z" fill="#248F55"/>
<path d="M50.9674 8.45922L46.685 1.94901C45.8994 0.75457 44.2985 0.000640869 42.5482 0.000640869H30.1666L39.6731 12.3166C39.642 12.3273 39.6106 12.338 39.5794 12.3487C38.9815 12.5542 39.0059 13.2093 39.6181 13.3888L47.8271 15.796C48.2075 15.9076 48.6343 15.7625 48.7803 15.4721L51.9448 9.17953C52.1787 8.71406 51.5644 8.26491 50.9674 8.45922Z" fill="#34CB79"/>
<path d="M51.9448 9.17899L48.7794 15.4715C48.634 15.7627 48.2065 15.9079 47.8265 15.7958L45.3427 15.0671L48.3037 9.17899C48.472 8.84506 48.2031 8.51988 47.8174 8.43458C47.4501 8.35326 47.1364 8.16954 46.9647 7.90858L43.0438 1.94875C42.2586 0.754706 40.6582 0 38.9073 0H42.5483C44.2981 0 45.8984 0.754706 46.6849 1.94875L50.967 8.45945C51.5648 8.26524 52.1782 8.71361 51.9448 9.17899Z" fill="#2FB86E"/>
<path d="M42.6949 33.5593C42.5795 33.1978 41.9688 33.043 41.5962 33.3275L35.1801 38.2268C34.9242 38.4223 34.9242 38.7391 35.1801 38.9345L41.6209 43.8526C41.9911 44.1353 42.5956 43.9844 42.7172 43.6291H52.1887C53.9324 43.6291 55.5283 42.8809 56.3172 41.6934L61.7216 33.5592H42.6949V33.5593Z" fill="#29A361"/>
<path d="M50.6904 33.5594L53.7615 37.1079C54.4558 37.9101 54.5326 38.9353 53.9627 39.7928L52.6996 41.6935C51.9119 42.8806 50.3154 43.6293 48.5721 43.6293H52.1885C53.9318 43.6293 55.5282 42.8806 56.3174 41.6935L61.7214 33.5595H50.6904V33.5594Z" fill="#248F55"/>
<path d="M29.7695 42.6939V34.0356C29.7695 33.3849 29.0786 32.8572 28.2263 32.8572H2.8064L9.34816 42.0281C10.159 43.1649 11.7185 43.8723 13.4136 43.8723H28.2263C29.0784 43.8723 29.7695 43.3448 29.7695 42.6939Z" fill="#29A361"/>
<path d="M13.587 32.858L7.94174 40.0573L2.8064 32.858H13.587Z" fill="#248F55"/>
<path d="M29.7689 34.0358V42.6944C29.7689 43.345 29.0781 43.8724 28.2263 43.8724H24.1774C25.0294 43.8724 25.7202 43.345 25.7202 42.6944V34.0358C25.7202 33.3852 25.0294 32.8578 24.1774 32.8578H28.2263C29.0781 32.8577 29.7689 33.3852 29.7689 34.0358Z" fill="#248F55"/>
<path d="M17.3507 25.2066L16.2092 18.6467C16.1527 18.3226 15.7629 18.0949 15.3386 18.1379L6.71493 19.0129C6.06553 19.0788 5.82353 19.682 6.26833 20.0176L0.825851 26.0077C-0.17203 27.106 -0.273307 28.54 0.564008 29.7138L6.48653 38.0167L16.103 25.7507C16.1064 25.7526 16.1097 25.7546 16.1132 25.7566C16.662 26.0747 17.4413 25.7282 17.3507 25.2066Z" fill="#34CB79"/>
<path d="M16.1127 25.7566C16.11 25.7545 16.1062 25.7526 16.1034 25.7506L6.48661 38.0163L4.50879 35.2438L12.3361 25.2586L12.5532 24.9816C12.6719 24.8302 12.9038 24.7648 13.1307 24.7984C13.1318 24.7986 13.133 24.7987 13.1341 24.7989C13.6168 24.8646 14.1117 24.5576 14.0376 24.1362L13.0349 18.3712L15.3377 18.138C15.7625 18.095 16.1531 18.3232 16.2094 18.6464L17.3511 25.2072C17.4417 25.7285 16.6618 26.0748 16.1127 25.7566Z" fill="#2FB86E"/>
<path d="M64.323 25.5569L56.8783 17.3197C56.4217 16.8144 55.5333 16.6615 54.837 16.9684L45.135 21.2435C44.365 21.5828 44.1287 22.3475 44.6189 22.9139L58.2959 38.7151L64.6415 29.1643C65.4095 28.0083 65.2874 26.6239 64.323 25.5569Z" fill="#34CB79"/>
<path d="M64.6414 34.1645L58.2948 43.7148L56.1663 41.2546L60.8771 34.1644C61.6451 33.0084 61.5232 31.6242 60.5586 30.5572L53.3772 22.6123L54.8373 21.9687C55.5333 21.6614 56.422 21.8145 56.8781 22.32L64.323 30.5573C65.2875 31.6243 65.4094 33.0085 64.6414 34.1645Z" fill="#2FB86E"/>
<path d="M75.5855 11.568C78.9135 11.568 81.4628 12.1653 83.2335 13.36C85.0042 14.5333 85.8895 16.368 85.8895 18.864C85.8895 20.4213 85.5268 21.6907 84.8015 22.672C84.0975 23.632 83.0735 24.3893 81.7295 24.944C82.1775 25.4987 82.6468 26.1387 83.1375 26.864C83.6282 27.568 84.1082 28.3147 84.5775 29.104C85.0682 29.872 85.5375 30.6827 85.9855 31.536C86.4335 32.368 86.8495 33.1893 87.2335 34H81.6335C81.2282 33.2747 80.8122 32.5387 80.3855 31.792C79.9802 31.0453 79.5535 30.32 79.1055 29.616C78.6788 28.912 78.2522 28.2507 77.8255 27.632C77.3988 26.992 76.9722 26.416 76.5455 25.904H74.0815V34H69.0895V12.144C70.1775 11.9307 71.2975 11.7813 72.4495 11.696C73.6228 11.6107 74.6682 11.568 75.5855 11.568ZM75.8735 15.824C75.5108 15.824 75.1802 15.8347 74.8815 15.856C74.6042 15.8773 74.3375 15.8987 74.0815 15.92V21.936H75.4895C77.3668 21.936 78.7108 21.7013 79.5215 21.232C80.3322 20.7627 80.7375 19.9627 80.7375 18.832C80.7375 17.744 80.3215 16.976 79.4895 16.528C78.6788 16.0587 77.4735 15.824 75.8735 15.824ZM88.5008 25.712C88.5008 24.2187 88.7248 22.9173 89.1728 21.808C89.6421 20.6773 90.2501 19.7387 90.9968 18.992C91.7434 18.2453 92.5968 17.68 93.5568 17.296C94.5381 16.912 95.5408 16.72 96.5648 16.72C98.9541 16.72 100.842 17.456 102.229 18.928C103.615 20.3787 104.309 22.5227 104.309 25.36C104.309 25.6373 104.298 25.9467 104.277 26.288C104.255 26.608 104.234 26.896 104.213 27.152H93.3968C93.5034 28.1333 93.9621 28.912 94.7728 29.488C95.5834 30.064 96.6714 30.352 98.0368 30.352C98.9114 30.352 99.7648 30.2773 100.597 30.128C101.45 29.9573 102.143 29.7547 102.677 29.52L103.317 33.392C103.061 33.52 102.719 33.648 102.293 33.776C101.866 33.904 101.386 34.0107 100.853 34.096C100.341 34.2027 99.7861 34.288 99.1888 34.352C98.5914 34.416 97.9941 34.448 97.3968 34.448C95.8821 34.448 94.5594 34.224 93.4288 33.776C92.3194 33.328 91.3914 32.72 90.6448 31.952C89.9194 31.1627 89.3754 30.2347 89.0128 29.168C88.6714 28.1013 88.5008 26.9493 88.5008 25.712ZM99.7008 23.888C99.6794 23.4827 99.6048 23.088 99.4768 22.704C99.3701 22.32 99.1888 21.9787 98.9328 21.68C98.6981 21.3813 98.3888 21.136 98.0048 20.944C97.6421 20.752 97.1834 20.656 96.6288 20.656C96.0954 20.656 95.6368 20.752 95.2528 20.944C94.8688 21.1147 94.5488 21.3493 94.2928 21.648C94.0368 21.9467 93.8341 22.2987 93.6848 22.704C93.5568 23.088 93.4608 23.4827 93.3968 23.888H99.7008ZM107.188 25.584C107.188 24.368 107.38 23.2267 107.764 22.16C108.17 21.072 108.746 20.1333 109.492 19.344C110.239 18.5333 111.146 17.8933 112.212 17.424C113.279 16.9547 114.495 16.72 115.86 16.72C116.756 16.72 117.578 16.8053 118.324 16.976C119.071 17.1253 119.796 17.3493 120.5 17.648L119.508 21.456C119.06 21.2853 118.57 21.136 118.036 21.008C117.503 20.88 116.906 20.816 116.244 20.816C114.836 20.816 113.78 21.2533 113.076 22.128C112.394 23.0027 112.052 24.1547 112.052 25.584C112.052 27.0987 112.372 28.272 113.012 29.104C113.674 29.936 114.815 30.352 116.436 30.352C117.012 30.352 117.631 30.2987 118.292 30.192C118.954 30.0853 119.562 29.9147 120.116 29.68L120.788 33.584C120.234 33.8187 119.54 34.0213 118.708 34.192C117.876 34.3627 116.959 34.448 115.956 34.448C114.42 34.448 113.098 34.224 111.988 33.776C110.879 33.3067 109.962 32.6773 109.236 31.888C108.532 31.0987 108.01 30.1707 107.668 29.104C107.348 28.016 107.188 26.8427 107.188 25.584ZM139.182 17.168C138.222 20.4107 137.22 23.4507 136.174 26.288C135.129 29.1253 133.988 31.8773 132.75 34.544C132.302 35.504 131.854 36.3147 131.406 36.976C130.958 37.6587 130.468 38.2133 129.934 38.64C129.401 39.088 128.793 39.408 128.11 39.6C127.449 39.8133 126.67 39.92 125.774 39.92C125.028 39.92 124.334 39.8453 123.694 39.696C123.076 39.568 122.564 39.4187 122.158 39.248L122.99 35.44C123.481 35.6107 123.918 35.728 124.302 35.792C124.686 35.856 125.092 35.888 125.518 35.888C126.372 35.888 127.022 35.6533 127.47 35.184C127.94 34.736 128.334 34.1067 128.654 33.296C127.566 31.1627 126.478 28.7733 125.39 26.128C124.302 23.4613 123.278 20.4747 122.318 17.168H127.374C127.588 18 127.833 18.9067 128.11 19.888C128.409 20.848 128.718 21.8293 129.038 22.832C129.358 23.8133 129.678 24.7733 129.998 25.712C130.34 26.6507 130.66 27.504 130.958 28.272C131.236 27.504 131.524 26.6507 131.822 25.712C132.121 24.7733 132.409 23.8133 132.686 22.832C132.985 21.8293 133.262 20.848 133.518 19.888C133.796 18.9067 134.041 18 134.254 17.168H139.182ZM140.501 25.584C140.501 24.368 140.693 23.2267 141.077 22.16C141.482 21.072 142.058 20.1333 142.805 19.344C143.551 18.5333 144.458 17.8933 145.525 17.424C146.591 16.9547 147.807 16.72 149.173 16.72C150.069 16.72 150.89 16.8053 151.637 16.976C152.383 17.1253 153.109 17.3493 153.813 17.648L152.821 21.456C152.373 21.2853 151.882 21.136 151.349 21.008C150.815 20.88 150.218 20.816 149.557 20.816C148.149 20.816 147.093 21.2533 146.389 22.128C145.706 23.0027 145.365 24.1547 145.365 25.584C145.365 27.0987 145.685 28.272 146.325 29.104C146.986 29.936 148.127 30.352 149.749 30.352C150.325 30.352 150.943 30.2987 151.605 30.192C152.266 30.0853 152.874 29.9147 153.429 29.68L154.101 33.584C153.546 33.8187 152.853 34.0213 152.021 34.192C151.189 34.3627 150.271 34.448 149.269 34.448C147.733 34.448 146.41 34.224 145.301 33.776C144.191 33.3067 143.274 32.6773 142.549 31.888C141.845 31.0987 141.322 30.1707 140.981 29.104C140.661 28.016 140.501 26.8427 140.501 25.584ZM172.232 25.552C172.232 26.8747 172.04 28.0907 171.656 29.2C171.272 30.288 170.718 31.2267 169.992 32.016C169.267 32.784 168.392 33.3813 167.368 33.808C166.366 34.2347 165.235 34.448 163.976 34.448C162.739 34.448 161.608 34.2347 160.584 33.808C159.582 33.3813 158.718 32.784 157.992 32.016C157.267 31.2267 156.702 30.288 156.296 29.2C155.891 28.0907 155.688 26.8747 155.688 25.552C155.688 24.2293 155.891 23.024 156.296 21.936C156.723 20.848 157.299 19.92 158.024 19.152C158.771 18.384 159.646 17.7867 160.648 17.36C161.672 16.9333 162.782 16.72 163.976 16.72C165.192 16.72 166.302 16.9333 167.304 17.36C168.328 17.7867 169.203 18.384 169.928 19.152C170.654 19.92 171.219 20.848 171.624 21.936C172.03 23.024 172.232 24.2293 172.232 25.552ZM167.368 25.552C167.368 24.08 167.07 22.928 166.472 22.096C165.896 21.2427 165.064 20.816 163.976 20.816C162.888 20.816 162.046 21.2427 161.448 22.096C160.851 22.928 160.552 24.08 160.552 25.552C160.552 27.024 160.851 28.1973 161.448 29.072C162.046 29.9253 162.888 30.352 163.976 30.352C165.064 30.352 165.896 29.9253 166.472 29.072C167.07 28.1973 167.368 27.024 167.368 25.552ZM182.646 34.32C181.259 34.2987 180.128 34.1493 179.254 33.872C178.4 33.5947 177.718 33.2107 177.206 32.72C176.715 32.208 176.374 31.6 176.182 30.896C176.011 30.1707 175.926 29.36 175.926 28.464V9.936L180.694 9.168V27.504C180.694 27.9307 180.726 28.3147 180.79 28.656C180.854 28.9973 180.971 29.2853 181.142 29.52C181.334 29.7547 181.6 29.9467 181.942 30.096C182.283 30.2453 182.742 30.3413 183.318 30.384L182.646 34.32ZM192.771 34.32C191.384 34.2987 190.253 34.1493 189.379 33.872C188.525 33.5947 187.843 33.2107 187.331 32.72C186.84 32.208 186.499 31.6 186.307 30.896C186.136 30.1707 186.051 29.36 186.051 28.464V9.936L190.819 9.168V27.504C190.819 27.9307 190.851 28.3147 190.915 28.656C190.979 28.9973 191.096 29.2853 191.267 29.52C191.459 29.7547 191.725 29.9467 192.067 30.096C192.408 30.2453 192.867 30.3413 193.443 30.384L192.771 34.32ZM195.376 25.712C195.376 24.2187 195.6 22.9173 196.048 21.808C196.517 20.6773 197.125 19.7387 197.872 18.992C198.618 18.2453 199.472 17.68 200.432 17.296C201.413 16.912 202.416 16.72 203.44 16.72C205.829 16.72 207.717 17.456 209.104 18.928C210.49 20.3787 211.184 22.5227 211.184 25.36C211.184 25.6373 211.173 25.9467 211.152 26.288C211.13 26.608 211.109 26.896 211.088 27.152H200.272C200.378 28.1333 200.837 28.912 201.648 29.488C202.458 30.064 203.546 30.352 204.912 30.352C205.786 30.352 206.64 30.2773 207.472 30.128C208.325 29.9573 209.018 29.7547 209.552 29.52L210.192 33.392C209.936 33.52 209.594 33.648 209.168 33.776C208.741 33.904 208.261 34.0107 207.728 34.096C207.216 34.2027 206.661 34.288 206.064 34.352C205.466 34.416 204.869 34.448 204.272 34.448C202.757 34.448 201.434 34.224 200.304 33.776C199.194 33.328 198.266 32.72 197.52 31.952C196.794 31.1627 196.25 30.2347 195.888 29.168C195.546 28.1013 195.376 26.9493 195.376 25.712ZM206.576 23.888C206.554 23.4827 206.48 23.088 206.352 22.704C206.245 22.32 206.064 21.9787 205.808 21.68C205.573 21.3813 205.264 21.136 204.88 20.944C204.517 20.752 204.058 20.656 203.504 20.656C202.97 20.656 202.512 20.752 202.128 20.944C201.744 21.1147 201.424 21.3493 201.168 21.648C200.912 21.9467 200.709 22.2987 200.56 22.704C200.432 23.088 200.336 23.4827 200.272 23.888H206.576ZM214.063 25.584C214.063 24.368 214.255 23.2267 214.639 22.16C215.045 21.072 215.621 20.1333 216.367 19.344C217.114 18.5333 218.021 17.8933 219.087 17.424C220.154 16.9547 221.37 16.72 222.735 16.72C223.631 16.72 224.453 16.8053 225.199 16.976C225.946 17.1253 226.671 17.3493 227.375 17.648L226.383 21.456C225.935 21.2853 225.445 21.136 224.911 21.008C224.378 20.88 223.781 20.816 223.119 20.816C221.711 20.816 220.655 21.2533 219.951 22.128C219.269 23.0027 218.927 24.1547 218.927 25.584C218.927 27.0987 219.247 28.272 219.887 29.104C220.549 29.936 221.69 30.352 223.311 30.352C223.887 30.352 224.506 30.2987 225.167 30.192C225.829 30.0853 226.437 29.9147 226.991 29.68L227.663 33.584C227.109 33.8187 226.415 34.0213 225.583 34.192C224.751 34.3627 223.834 34.448 222.831 34.448C221.295 34.448 219.973 34.224 218.863 33.776C217.754 33.3067 216.837 32.6773 216.111 31.888C215.407 31.0987 214.885 30.1707 214.543 29.104C214.223 28.016 214.063 26.8427 214.063 25.584ZM230.703 12.976L235.471 12.208V17.168H241.199V21.136H235.471V27.056C235.471 28.0587 235.642 28.8587 235.983 29.456C236.346 30.0533 237.061 30.352 238.127 30.352C238.639 30.352 239.162 30.3093 239.695 30.224C240.25 30.1173 240.751 29.9787 241.199 29.808L241.871 33.52C241.295 33.7547 240.655 33.9573 239.951 34.128C239.247 34.2987 238.383 34.384 237.359 34.384C236.058 34.384 234.981 34.2133 234.127 33.872C233.274 33.5093 232.591 33.0187 232.079 32.4C231.567 31.76 231.205 30.992 230.991 30.096C230.799 29.2 230.703 28.208 230.703 27.12V12.976Z" fill="#322153"/>
</svg>
